# xmcd CD database file
#
# Track frame offsets:
#	150
#	17900
#	38485
#	80862
#	98022
#	122592
#	154633
#	175553
#	194794
#	210583
#	234728
#	258577
#
# Disc length: 3764 seconds
#
# Revision: 0
# Processed by: cddbd v1.5.1PL0 Copyright (c) Steve Scherf et al.
# Submitted via: CDex 1.51
#
DISCID=9b0eb20c
DTITLE=Otis and the Alligators - The Last Randango
DYEAR=1998
DGENRE=Blues
TTITLE0=i dont believe
TTITLE1=shake and finger pop
TTITLE2=walkin' the streets at midnite
TTITLE3=no money, no honey
TTITLE4=help me
TTITLE5=made a mistake
TTITLE6=whats the big idea
TTITLE7=boom boom
TTITLE8=too late
TTITLE9=low down dirty shame
TTITLE10=i can't hold out
TTITLE11=mississippi burnout
EXTD=YEAR: 1998
EXTT0=
EXTT1=
EXTT2=
EXTT3=
EXTT4=
EXTT5=
EXTT6=
EXTT7=
EXTT8=
EXTT9=
EXTT10=
EXTT11=
PLAYORDER=
